<?xml version="1.0" encoding="utf-8"?>
<!-- Generator: Adobe Illustrator 24.3.0, SVG Export Plug-In . SVG Version: 6.00 Build 0)  -->
<svg version="1.1" id="Layer_1" xmlns="http://www.w3.org/2000/svg" xmlns:xlink="http://www.w3.org/1999/xlink" x="0px" y="0px"
	 viewBox="0 0 4000 4000" style="enable-background:new 0 0 4000 4000;" xml:space="preserve">
<style type="text/css">
	.st0{fill:#FF0000;}
	.st1{fill-rule:evenodd;clip-rule:evenodd;fill:#FF0000;}
	.st2{fill:#FF0000;stroke:#332C2B;stroke-width:0.5669;stroke-miterlimit:2.6131;}
	.st3{fill:#FFFFFF;}
	.st4{font-family:'APompadourBoldSample';}
	.st5{font-size:600px;}
</style>
<g>
	<g>
		<path class="st0" d="M1175.59,1914.16c1.45-39.09,52.16-112.06,52.16-112.06s-21.45,18.96-31.66,35.91
			c0,0-120.06-1.79-164.31,43.94C1031.78,1881.95,1095.97,1915.25,1175.59,1914.16z"/>
		<path class="st0" d="M2176.34,1903.02c16.67,6.64,34.42,19.77,45.36,39.78c19.31,35.31,29.17,102.74,29.17,102.74
			s-13.35-36.9-16.24-37c-21.49-0.77-45.3-1.49-70.98-2.17c-5.92-21.03-0.46-72.26,0.15-77.54c0.45-3.9-8.02-17.38-12.9-24.77
			C2161.66,1903.62,2170.23,1903.27,2176.34,1903.02z"/>
		<path class="st0" d="M1663.07,2000.72c-5.77-24.67-14.89-60.26-23-76.87c170.23-4.19,333.1-13.13,333.1-13.13
			c44.72-1.56,85.26-3.07,118.7-4.35c2.15,7.93,4.83,18.27,5.03,21.15c0.34,4.85-26.09,10.48-28.94,20.43
			c-1.83,6.39,2.55,36,5.92,56.38C1949.31,2001.93,1800.18,2000.54,1663.07,2000.72z"/>
		<path class="st0" d="M567.2,2168.41c9.11-21.75-4.21-74.97,5.71-77.83s148.28-7.08,155.52-19.5
			c7.23-12.42-119.47-80.48-119.47-80.48s16.13-8.16,78.98-21.21c47.58-9.87,267.38-24.3,371.39-30.73
			c-1.23,5.71-3.61,20.19,0.14,34.29c4.29,16.15,137.69,167.65,160.92,193.79l-37.69-24.69l-9.01,2.35
			c-43.83-49.73-107.22-79.02-175.61-74.26c-95.59,6.66-172.27,77.86-195.82,171.3l-23.59,6.16l-232.79-7.33
			C545.89,2240.28,558.09,2190.16,567.2,2168.41z"/>
		<path class="st0" d="M1373.22,1716.43c302.22-20.25,364.81-26.23,468.81-4.24c104.01,21.99,434.09,172.8,454.82,176.23
			c18.71,3.09,181.96-4.54,313.72,13.23c4.34,20.48-266.58,22.28-276.05,22.33l379.74-2.15c88.93,21.61,122.17,41.07,122.17,41.07
			l-80.07,2.06c0,0,107.3,65.62,125.88,70.82c18.58,5.2,66.46,2.41,66.46,2.41l5.23,42.41c0,0-98.39-39.44-180.95-15.01l-6.07,0.16
			c-38.56-53.6-100.52-86.42-168-81.72c-60.51,4.22-112.44,37.7-144.7,86.69c-7.33-10.26-35.65-43-105.24-55.18
			c-13.05-2.28-45.06-4.51-94.19-6.43c-1.95-19.06-9.55-51.58-22.57-71.53c-19.26-29.52-45.2-35.02-45.2-35.02
			s-42.17-26.77-96.54-57.35c-15.73,1.43-70,6.45-73.13,8.06c-3.67,1.88-9.74,15.5-9.74,15.5s-1.72-19.17,12.36-26.85
			c9.32-5.09,33.47-7.65,48.72-8.79c-52.95-28.95-113.06-58.61-156.34-70.61c-79.62-22.08-180.42-39.86-335.32-36.27l67.63,157.21
			c-3.93-17.58-14.82-67.95-11.79-73.85c3.68-7.16,180.59,4.47,258.22,40.08c44.76,20.53,65.65,35.56,75.02,46.43
			c-227.39,19.55-455.9,22.96-685.54,10.21c5.59-22.29,28.28-67.91,28.28-67.91c8.8-4.4,207.87-30.73,215.65-28.02
			c5.18,1.8,22.52,49.13,34.27,82.72c-13.1-49.68-36.82-137.97-46.69-164.26c-12.24,0.69-24.76,1.5-37.62,2.44
			c-215.23,15.81-456.41,97.99-456.48,126.84c-0.07,33.82,115.19,47.1,253.81,55.85c4.67,0.3,9.33,0.95,13.94,1.85
			c58.56,11.43,203.02,11.57,344.48,8.25c5.31,13.07,17.09,44.15,23.32,76.65c-202.34,0.38-376.4,4.24-403.03,13.39
			c-51.15,17.57-54.12,83.71-53.01,111.46c-32.75-37-125.66-142.87-129.61-157.75c-2.96-11.13-2.09-22.51-1-29.63
			c29.03-1.78,47.31-2.84,47.31-2.84s-62.8-29.74-100.07-27.14c-37.27,2.6-162.93,7.56-162.93,7.56s81.64-48.46,96.65-56.41
			c15.01-7.95,2.23-11.53-10.23-10.66c-12.46,0.87-155.11,72.54-170.73,82.56c-15.62,10.02-25.51,15.18-25.51,15.18l-28.09-0.07
			C713.28,1946.38,1071,1736.68,1373.22,1716.43z"/>
	</g>
	<path class="st1" d="M1028.21,1183.13l751.44-768.91l715.3,749.36c-86.33,2.55-171.78,9.58-253.11,18.24l-8.09,0.87l-474.1-488.47
		l-465.98,496.05l-60.92,64.85c-70.16-15.37-141.93-37.6-202.51-70.86L1028.21,1183.13z"/>
	<path class="st2" d="M1028.21,1183.13l751.44-768.91l715.3,749.36c-86.33,2.55-171.78,9.58-253.11,18.24l-8.09,0.87l-474.1-488.47
		l-465.98,496.05l-60.92,64.85c-70.16-15.37-141.93-37.6-202.51-70.86L1028.21,1183.13z"/>
	<path class="st1" d="M2178.8,778.09l199.24-203.88l597.97,626.43l24.81,25.99c-86.23-30.76-179.68-48.44-275.73-57.16
		l-362.79-374.74l-83.13,88.49L2178.8,778.09z"/>
	<path class="st2" d="M2178.8,778.09l199.24-203.88l597.97,626.43l24.81,25.99c-86.23-30.76-179.68-48.44-275.73-57.16
		l-362.79-374.74l-83.13,88.49L2178.8,778.09z"/>
	<polygon class="st1" points="1325.56,580.29 1775.1,120.29 2214.2,580.29 2065.52,580.29 1764.41,270.06 1472.97,580.29 	"/>
	<polygon class="st2" points="1325.56,580.29 1775.1,120.29 2214.2,580.29 2065.52,580.29 1764.41,270.06 1472.97,580.29 	"/>
	<path class="st1" d="M1660.11,974.67h89.81v89.82h-89.81V974.67z M1660.11,1104.4h89.81v89.82h-89.81V1104.4z M1789.83,1104.4
		h89.81v89.82h-89.81V1104.4z M1789.83,974.67h89.81v89.82h-89.81V974.67z"/>
	<path class="st1" d="M3267.73,1795.68c1.68,46.57-12.14,95.19-43.14,135.62c-84.93,110.73-208.77,113.23-208.77,113.23
		c122.66-9.52,300.8-190.02,183.66-276.42c-133.04-98.13-217.59,165.4-245.46,202.63c-20.58,27.5-46.06,46.76-71.87,60.23
		c-63.44,33.11-128.92,31.32-128.92,31.32c132.05,56.14,240.68,68.34,328.42,52.96c225.12-39.44,312.78-260.46,306.12-386.79
		c-0.6-11.35-1.78-22.58-3.5-33.67c-4.71-30.23-13.49-59.35-25.7-86.7c-272.22-781.67-1561.32-224.53-2028.47-274.37
		c-15.43-1.73-31.11-3.7-46.92-5.95l-0.23-0.03l-0.2-0.03c-98.75-14.06-202.85-38.75-286.38-81.63
		c-86.97-44.66-162.29-118.46-165.94-219.53c-1.68-46.56,12.13-95.19,43.14-135.62c84.93-110.73,208.77-113.24,208.77-113.24
		c-122.66,9.53-300.8,190.02-183.66,276.43c133.04,98.12,217.59-165.4,245.47-202.63c20.58-27.51,46.05-46.76,71.87-60.24
		c63.43-33.11,128.92-31.33,128.92-31.33c-132.06-56.13-240.68-68.33-328.42-52.96c-225.13,39.45-312.79,260.46-306.12,386.79
		c0.59,11.35,1.77,22.58,3.5,33.67c4.7,30.22,13.49,59.35,25.69,86.71c272.24,781.66,1561.32,224.53,2028.48,274.37
		c15.43,1.73,31.1,3.71,46.92,5.95l0.22,0.03l0.21,0.03c98.75,14.05,202.85,38.75,286.38,81.63
		C3188.77,1620.81,3264.08,1694.6,3267.73,1795.68"/>
</g>
<text transform="matrix(1 0 0 1 582.8194 2725.7727)" class="st3 st4 st5">LocaHouse</text>
</svg>
